<?xml version="1.0" encoding="utf-8"?>
<!-- Generator: Adobe Illustrator 16.0.3, SVG Export Plug-In . SVG Version: 6.00 Build 0)  -->
<!DOCTYPE svg PUBLIC "-//W3C//DTD SVG 1.1//EN" "http://www.w3.org/Graphics/SVG/1.1/DTD/svg11.dtd">
<svg version="1.1" id="Layer_1" xmlns="http://www.w3.org/2000/svg" xmlns:xlink="http://www.w3.org/1999/xlink" x="0px" y="0px"
	 width="144px" height="144px" viewBox="0 0 144 144" enable-background="new 0 0 144 144" xml:space="preserve">
<circle fill="#FFFFFF" cx="72" cy="72.334" r="65.247"/>
<g>
	<path fill="#FFFFFF" d="M72,3.3c38.127,0,69.034,30.908,69.034,69.035c0,38.126-30.907,69.035-69.034,69.035
		S2.965,110.461,2.965,72.334C2.965,34.208,33.873,3.3,72,3.3 M72,0.669c-9.674,0-19.06,1.896-27.896,5.633
		c-8.534,3.61-16.198,8.777-22.779,15.357C14.744,28.24,9.577,35.904,5.967,44.438c-3.738,8.837-5.633,18.223-5.633,27.896
		c0,9.673,1.895,19.059,5.633,27.896c3.61,8.534,8.776,16.198,15.357,22.779c6.581,6.581,14.245,11.747,22.779,15.357
		C52.94,142.105,62.326,144,72,144c9.673,0,19.06-1.895,27.896-5.633c8.534-3.61,16.198-8.776,22.778-15.357
		c6.581-6.581,11.748-14.245,15.357-22.779c3.738-8.837,5.633-18.223,5.633-27.896c0-9.674-1.895-19.06-5.633-27.896
		c-3.609-8.534-8.776-16.198-15.357-22.779c-6.58-6.581-14.244-11.748-22.778-15.357C91.06,2.564,81.673,0.669,72,0.669L72,0.669z"
		/>
</g>
<g>
	<path d="M51.652,34.427v29.667h-0.836v-14.75H30.217v14.75h-0.835V34.427h0.835v14.081h20.599V34.427H51.652z"/>
	<path d="M56.666,53.313c0.027-1.448,0.285-2.848,0.773-4.199c0.487-1.351,1.17-2.549,2.047-3.593
		c0.877-1.045,1.929-1.88,3.155-2.507c1.225-0.626,2.59-0.94,4.095-0.94c1.587,0,3.029,0.307,4.324,0.919
		c1.296,0.613,2.404,1.435,3.322,2.465c0.919,1.03,1.636,2.221,2.152,3.572c0.515,1.351,0.787,2.765,0.815,4.241v0.46H57.501
		c0.084,1.31,0.382,2.563,0.898,3.76c0.515,1.198,1.197,2.256,2.047,3.176c0.85,0.919,1.838,1.65,2.967,2.194
		c1.128,0.543,2.361,0.814,3.698,0.814c0.779,0,1.567-0.104,2.361-0.313c0.794-0.209,1.538-0.508,2.234-0.899
		c0.697-0.39,1.324-0.863,1.882-1.42c0.556-0.557,1.002-1.197,1.337-1.922l0.793,0.209c-0.334,0.835-0.815,1.581-1.44,2.235
		c-0.627,0.655-1.337,1.198-2.131,1.629c-0.795,0.432-1.63,0.759-2.507,0.982s-1.721,0.334-2.528,0.334
		c-1.504,0-2.897-0.321-4.178-0.961c-1.281-0.641-2.389-1.49-3.322-2.549c-0.934-1.059-1.658-2.257-2.173-3.594
		C56.923,56.071,56.666,54.707,56.666,53.313z M76.471,52.896c-0.083-1.421-0.383-2.736-0.897-3.948
		c-0.516-1.212-1.191-2.263-2.026-3.155c-0.835-0.891-1.833-1.594-2.988-2.11c-1.157-0.515-2.431-0.772-3.823-0.772
		c-1.421,0-2.696,0.299-3.824,0.898s-2.083,1.372-2.862,2.319c-0.78,0.947-1.386,2.012-1.817,3.196
		c-0.433,1.184-0.676,2.375-0.732,3.572H76.471z"/>
	<path d="M91.43,42.408v0.836c-1.115,0.056-2.132,0.272-3.051,0.648c-0.92,0.376-1.734,0.877-2.444,1.504
		c-0.71,0.626-1.31,1.365-1.797,2.215c-0.488,0.85-0.87,1.775-1.149,2.778v13.705h-0.835V42.408h0.835v5.599
		c0.891-1.755,2.04-3.126,3.448-4.115C87.842,42.903,89.506,42.408,91.43,42.408z"/>
	<path d="M93.937,53.313c0.027-1.448,0.284-2.848,0.772-4.199c0.486-1.351,1.17-2.549,2.047-3.593
		c0.877-1.045,1.929-1.88,3.155-2.507c1.226-0.626,2.59-0.94,4.095-0.94c1.589,0,3.028,0.307,4.324,0.919
		c1.295,0.613,2.402,1.435,3.322,2.465c0.919,1.03,1.636,2.221,2.151,3.572s0.786,2.765,0.814,4.241v0.46H94.771
		c0.083,1.31,0.382,2.563,0.899,3.76c0.514,1.198,1.196,2.256,2.047,3.176c0.849,0.919,1.838,1.65,2.966,2.194
		c1.128,0.543,2.361,0.814,3.699,0.814c0.778,0,1.566-0.104,2.359-0.313c0.794-0.209,1.539-0.508,2.236-0.899
		c0.696-0.39,1.321-0.863,1.88-1.42c0.557-0.557,1.003-1.197,1.337-1.922l0.794,0.209c-0.335,0.835-0.814,1.581-1.442,2.235
		c-0.626,0.655-1.337,1.198-2.131,1.629c-0.793,0.432-1.629,0.759-2.507,0.982c-0.877,0.223-1.721,0.334-2.526,0.334
		c-1.505,0-2.899-0.321-4.18-0.961c-1.282-0.641-2.389-1.49-3.322-2.549c-0.933-1.059-1.657-2.257-2.172-3.594
		C94.193,56.071,93.937,54.707,93.937,53.313z M113.741,52.896c-0.084-1.421-0.384-2.736-0.898-3.948
		c-0.516-1.212-1.19-2.263-2.026-3.155c-0.836-0.891-1.831-1.594-2.987-2.11c-1.156-0.515-2.431-0.772-3.823-0.772
		c-1.421,0-2.695,0.299-3.824,0.898c-1.127,0.599-2.082,1.372-2.861,2.319c-0.78,0.947-1.386,2.012-1.817,3.196
		c-0.433,1.184-0.676,2.375-0.731,3.572H113.741z"/>
</g>
<g>
	<path d="M30.55,81.787v28.037h-0.835V80.157h0.626l22.688,28.455V80.199h0.835v29.625h-0.96L30.55,81.787z"/>
	<path d="M69.743,110.241c-1.533-0.028-2.932-0.361-4.2-1.003c-1.268-0.64-2.354-1.482-3.259-2.527
		c-0.905-1.045-1.609-2.229-2.11-3.552c-0.501-1.322-0.752-2.695-0.752-4.116c0-1.504,0.271-2.938,0.815-4.304
		c0.543-1.364,1.281-2.562,2.214-3.593c0.933-1.03,2.027-1.845,3.281-2.444c1.253-0.599,2.589-0.898,4.011-0.898
		c1.559,0,2.973,0.334,4.241,1.003c1.266,0.668,2.353,1.532,3.258,2.591s1.602,2.264,2.09,3.614
		c0.487,1.352,0.731,2.695,0.731,4.031c0,1.478-0.265,2.884-0.794,4.221s-1.261,2.521-2.194,3.552
		c-0.933,1.03-2.026,1.853-3.278,2.466C72.542,109.893,71.19,110.213,69.743,110.241z M60.258,99.043
		c0.055,1.338,0.32,2.633,0.794,3.887c0.473,1.253,1.128,2.36,1.964,3.321c0.835,0.961,1.817,1.728,2.946,2.298
		c1.127,0.571,2.387,0.857,3.781,0.857c1.42,0,2.714-0.307,3.886-0.919c1.17-0.613,2.172-1.414,3.008-2.403
		c0.836-0.988,1.477-2.103,1.922-3.343c0.445-1.239,0.669-2.472,0.669-3.698c0-1.336-0.243-2.632-0.73-3.886
		c-0.488-1.253-1.158-2.36-2.007-3.321c-0.85-0.961-1.852-1.734-3.008-2.319c-1.157-0.585-2.402-0.877-3.739-0.877
		c-1.421,0-2.716,0.313-3.886,0.94c-1.17,0.626-2.173,1.435-3.008,2.423c-0.836,0.989-1.477,2.104-1.922,3.343
		C60.481,96.586,60.258,97.818,60.258,99.043z"/>
	<path d="M113.365,88.138h0.92l-9.486,21.687h-0.751l-5.307-12.159l-5.307,12.159h-0.753l-9.484-21.687h0.92l8.941,20.475
		l5.223-11.992l-3.636-8.398h0.878l3.218,7.313l3.217-7.313h0.877l-3.634,8.398l5.223,11.992L113.365,88.138z"/>
</g>
<g>
	<path d="M69.378,73.953c0.079,0,0.177,0.099,0.177,0.521c0,1.092-0.492,1.84-1.368,1.84c-0.679,0-1.112-0.314-1.319-0.875
		c-0.236,0.511-0.679,0.875-1.25,0.875c-1.083,0-1.722-0.649-1.722-2.253c0-1.604,0.866-2.224,1.958-2.224
		c0.501,0,0.797,0.118,0.964,0.286c0.089-0.197,0.266-0.286,0.453-0.286c0.275,0,0.374,0.138,0.374,0.138v2.824
		c0,0.768,0.265,1.132,0.659,1.132c0.541,0,0.924-0.502,0.924-1.919C69.23,74.012,69.241,73.953,69.378,73.953z M66.751,74.603
		v-1.348c0-0.649-0.404-1.034-0.807-1.034c-0.649,0-1.112,0.197-1.112,1.84s0.423,1.869,0.905,1.869
		C66.072,75.931,66.751,75.479,66.751,74.603z"/>
	<path d="M74.573,73.953c0.079,0,0.177,0.099,0.177,0.521c0,1.092-0.492,1.84-1.367,1.84c-0.994,0-1.466-0.688-1.466-1.811v-1.15
		c0-0.867-0.236-1.171-0.59-1.171c-0.6,0-1.191,0.502-1.191,2.312v1.683c0,0-0.098,0.138-0.374,0.138
		c-0.266,0-0.512-0.177-0.512-0.6v-3.74c0,0,0.098-0.138,0.374-0.138c0.265,0,0.511,0.158,0.511,0.739
		c0.266-0.473,0.689-0.739,1.309-0.739c0.826,0,1.397,0.532,1.397,1.565v1.396c0,0.768,0.265,1.132,0.66,1.132
		c0.442,0,0.925-0.403,0.925-1.919C74.426,74.012,74.436,73.953,74.573,73.953z"/>
	<path d="M76.402,71.837c0.443,0,0.719,0.099,0.906,0.226v-1.338c0-1.555,0.226-2.372,1.19-2.372c0.501,0,0.787,0.433,0.787,1.21
		c0,0.896-0.66,1.712-1.092,2.145v3.089c0,0.768,0.284,1.132,0.708,1.132c0.305,0,0.886-0.354,0.886-1.623
		c0-0.099,0-0.188-0.011-0.296c0,0,0.011-0.059,0.147-0.059c0.079,0,0.177,0.099,0.177,0.521c0,1.092-0.541,1.84-1.317,1.84
		c-0.718,0-1.171-0.334-1.378-0.924c-0.236,0.521-0.679,0.914-1.24,0.914c-1.082,0-1.722-0.698-1.722-2.303
		C74.444,72.398,75.311,71.837,76.402,71.837z M77.288,74.504v-1.26c0-0.678-0.384-1.023-0.798-1.023
		c-0.647,0-1.11,0.138-1.11,1.781c0,1.644,0.423,1.919,0.904,1.919C76.697,75.921,77.288,75.391,77.288,74.504z M78.194,71.237
		c0.305-0.394,0.669-1.004,0.669-1.702c0-0.6-0.139-0.797-0.355-0.797C78.233,68.738,78.194,69.161,78.194,71.237z"/>
</g>
<g>
	<g>
		<path d="M60.76,74.27h-6.702c-0.107,0-0.194-0.086-0.194-0.193c0-0.106,0.087-0.194,0.194-0.194h6.702
			c0.107,0,0.193,0.088,0.193,0.194C60.954,74.184,60.867,74.27,60.76,74.27z"/>
	</g>
	<g>
		<path d="M89.941,74.27h-6.702c-0.106,0-0.193-0.086-0.193-0.193c0-0.106,0.087-0.194,0.193-0.194h6.702
			c0.107,0,0.194,0.088,0.194,0.194C90.136,74.184,90.049,74.27,89.941,74.27z"/>
	</g>
</g>
</svg>
