<?xml version="1.0" encoding="utf-8"?>
<!-- Generator: Adobe Illustrator 16.0.3, SVG Export Plug-In . SVG Version: 6.00 Build 0)  -->
<!DOCTYPE svg PUBLIC "-//W3C//DTD SVG 1.1//EN" "http://www.w3.org/Graphics/SVG/1.1/DTD/svg11.dtd">
<svg version="1.1" id="Layer_1" xmlns="http://www.w3.org/2000/svg" xmlns:xlink="http://www.w3.org/1999/xlink" x="0px" y="0px"
	 width="144px" height="144px" viewBox="0 0 144 144" enable-background="new 0 0 144 144" xml:space="preserve">
<circle fill="#FFFFFF" cx="72" cy="72.037" r="65.584"/>
<g>
	<path fill="#FFFFFF" d="M72,2.644c38.325,0,69.393,31.068,69.393,69.393c0,38.324-31.067,69.392-69.393,69.392
		c-38.324,0-69.392-31.068-69.392-69.392C2.608,33.712,33.676,2.644,72,2.644 M72,0c-9.724,0-19.158,1.905-28.041,5.662
		c-8.578,3.629-16.282,8.823-22.896,15.438C14.447,27.714,9.254,35.417,5.625,43.996c-3.756,8.883-5.662,18.317-5.662,28.041
		c0,9.724,1.905,19.159,5.662,28.042c3.629,8.578,8.822,16.282,15.438,22.896c6.615,6.614,14.318,11.809,22.896,15.438
		c8.883,3.757,18.317,5.661,28.041,5.661s19.159-1.904,28.041-5.661c8.578-3.629,16.282-8.823,22.896-15.438
		s11.81-14.318,15.438-22.896c3.756-8.883,5.661-18.317,5.661-28.042c0-9.724-1.905-19.158-5.661-28.041
		c-3.628-8.578-8.823-16.282-15.438-22.896S108.619,9.291,100.041,5.662C91.159,1.905,81.724,0,72,0L72,0z"/>
</g>
<path d="M65.978,45.107v53.86H64.46V72.188H27.063v26.778h-1.517v-53.86h1.517v25.564H64.46V45.107H65.978z"/>
<path d="M76.125,48.066v50.901h-1.517v-53.86h1.138l41.19,51.661V45.183h1.518v53.784h-1.743L76.125,48.066z"/>
</svg>
