<?xml version="1.0" encoding="utf-8"?>
<!-- Generator: Adobe Illustrator 16.0.3, SVG Export Plug-In . SVG Version: 6.00 Build 0)  -->
<!DOCTYPE svg PUBLIC "-//W3C//DTD SVG 1.1//EN" "http://www.w3.org/Graphics/SVG/1.1/DTD/svg11.dtd">
<svg version="1.1" id="Layer_1" xmlns="http://www.w3.org/2000/svg" xmlns:xlink="http://www.w3.org/1999/xlink" x="0px" y="0px"
	 width="1299.617px" height="135.786px" viewBox="0 0 1299.617 135.786" enable-background="new 0 0 1299.617 135.786"
	 xml:space="preserve">
<g>
	<rect x="89.073" opacity="0.8" fill="#FFFFFF" width="1121.472" height="85.19"/>
	<polygon opacity="0.8" fill="#FFFFFF" points="101.421,93.19 182.148,135.786 182.148,93.19 	"/>
	<polygon opacity="0.8" fill="#FFFFFF" points="81.073,93.19 81.073,50.247 23.34,50.247 23.339,50.247 0,50.247 23.339,92.841 
		23.339,92.843 0,135.438 23.339,135.438 161.489,135.438 81.421,93.19 	"/>
	<polygon opacity="0.8" fill="#FFFFFF" points="1199.197,93.19 1118.471,135.786 1118.471,93.19 	"/>
	<polygon opacity="0.8" fill="#FFFFFF" points="1218.545,93.19 1218.545,50.247 1276.279,50.247 1276.279,50.247 1299.617,50.247 
		1276.279,92.841 1276.279,92.843 1299.617,135.438 1276.279,135.438 1138.129,135.438 1218.197,93.19 	"/>
</g>
</svg>
